<svg xmlns="http://www.w3.org/2000/svg" viewBox="0 0 118.19 135.02">
  <g>
    <g data-name="test">
      <path
        fill="#0d0d0d"
        d="M108.07,0H10.12C4.53,0,0,4.53,0,10.12v98.75c0,4.38,2.81,8.26,6.97,9.62l48.98,16.03c1.02.33,2.08.5,3.15.5s2.13-.17,3.15-.5l48.98-16.03c4.16-1.36,6.97-5.24,6.97-9.62V10.12c0-5.59-4.53-10.12-10.12-10.12ZM93.1,56.84c0,.81-.66,1.47-1.47,1.47h-1.74c-.81,0-1.47-.66-1.47-1.47v-2.9c0-.93-.75-1.68-1.68-1.68h-23.6c-.93,0-1.68.75-1.68,1.68v9.58c.02.91.76,1.65,1.68,1.65h16.71c.81,0,1.47.66,1.47,1.47v1.74c0,.81-.66,1.47-1.47,1.47h-16.71c-.92,0-1.66.73-1.68,1.65v9.59c0,.93.75,1.68,1.68,1.68h2.74c.81,0,1.47.66,1.47,1.47v1.74c0,.81-.66,1.47-1.47,1.47h-13.55c-.81,0-1.47-.66-1.47-1.47v-1.74c0-.81.66-1.47,1.47-1.47h2.76c.93,0,1.68-.75,1.68-1.68v-27.15c0-.93-.75-1.68-1.68-1.68h-23.62c-.93,0-1.68.75-1.68,1.68v2.9c0,.81-.66,1.47-1.47,1.47h-1.74c-.81,0-1.47-.66-1.47-1.47v-6.92c0-.4.11-.75.25-1.03.14-.28.29-.48.5-.67.35-.34.96-.68,1.8-.65h62.92c.84-.03,1.45.31,1.8.65.2.2.35.39.5.67.14.28.24.62.25,1.03v2.38s0,4.54,0,4.54Z"
      />
      <path
        fill="#fcc066"
        d="M93.1,56.84c0,.81-.66,1.47-1.47,1.47h-1.74c-.81,0-1.47-.66-1.47-1.47v-2.9c0-.93-.75-1.68-1.68-1.68h-23.6c-.93,0-1.68.75-1.68,1.68v9.58c.02.91.76,1.65,1.68,1.65h16.71c.81,0,1.47.66,1.47,1.47v1.74c0,.81-.66,1.47-1.47,1.47h-16.71c-.92,0-1.66.73-1.68,1.65v9.59c0,.93.75,1.68,1.68,1.68h2.74c.81,0,1.47.66,1.47,1.47v1.74c0,.81-.66,1.47-1.47,1.47h-13.55c-.81,0-1.47-.66-1.47-1.47v-1.74c0-.81.66-1.47,1.47-1.47h2.76c.93,0,1.68-.75,1.68-1.68v-27.15c0-.93-.75-1.68-1.68-1.68h-23.62c-.93,0-1.68.75-1.68,1.68v2.9c0,.81-.66,1.47-1.47,1.47h-1.74c-.81,0-1.47-.66-1.47-1.47v-6.92c0-.4.11-.75.25-1.03.14-.28.29-.48.5-.67.35-.34.96-.68,1.8-.65h62.92c.84-.03,1.45.31,1.8.65.2.2.35.39.5.67.14.28.24.62.25,1.03v2.38s0,4.54,0,4.54Z"
      />
    </g>
  </g>
</svg>
