<?xml version="1.0" encoding="UTF-8"?>
<svg id="Layer_2" xmlns="http://www.w3.org/2000/svg" viewBox="0 0 326.31 80.08">
  <defs>
    <style>
      .cls-1 {
        fill: #0d0d0d;
      }
    </style>
  </defs>
  <g id="Layer_1-2" data-name="Layer_1">
    <g>
      <path class="cls-1" d="M180.17,5.91c-.18.08.75.07,6.85-.19-.05-.1-3.33-.1-7.06,0,1.68-.03.39.11.21.19Z"/>
      <path class="cls-1" d="M1.88,44.44s-.14.15-.29.35c-.13.2-.29.49-.53.91,0,0,.19-.24.38-.47.09-.12.19-.24.26-.32.07-.09.13-.15.13-.15.09-.22.15-.39.05-.31Z"/>
      <path class="cls-1" d="M317.95,41.33c-.44.31-.89.69-1.51,1.16.55-.39,1.01-.78,1.51-1.16Z"/>
      <path class="cls-1" d="M.49,49.26c.04-.19.02-.51.12-1,0,0-.07.15-.14.31-.07.16-.12.31-.12.31.04.27.06.61.09.63.02.01.03-.06.06-.25Z"/>
      <path class="cls-1" d="M.16,49.4c.09-.26.19-.53.19-.53-.04-.23-.05-.42-.12-.32-.04.05-.07.17-.11.39-.03.22-.12.54-.12.99,0,0,.02-.07.04-.17.02-.1.06-.23.11-.36Z"/>
      <path class="cls-1" d="M54.71,20.55c-.12-.03-.92.13-4.6,1.16,1.7-.37,1.9-.35,2.44-.42.54-.07,1.4-.26,4.5-.98,1.75-.34,4.28-.86,5.91-1.27-3.4.74-4.02.85-4.28.85-.25,0-.13-.11-1.98.28-1.68.41-1.84.51-1.24.42-1.14.21-.62,0-.74-.04Z"/>
      <path class="cls-1" d="M150.05,7.28c.57-.04,1.13-.09,1.62-.13-2.34.03-4.52.15-7.17.34.17-.02.37-.05.65-.08l-.99.11c-3.09.23-6.83.55-12.23.99,3.15-.22,5.35-.33,7.48-.45l-.53.06c1.43-.08,1.06.02,5.45-.34.04,0,.07,0,.11,0,0,0,0,0,0,0,1.09-.09,2.39-.19,4.16-.33.86-.09,1.3-.14,1.47-.16Z"/>
      <path class="cls-1" d="M134.98,8.42c1.15-.09,2.38-.18,3.43-.26l.45-.05c-.66.04-1.78.12-3.88.31Z"/>
      <path class="cls-1" d="M54.76,21.11c-.17.05-.31.09-.42.12l.42-.12Z"/>
      <path class="cls-1" d="M76.7,16.54c.53-.08,1.08-.17,1.56-.25-.55.07-1.07.16-1.56.25Z"/>
      <path class="cls-1" d="M83.78,15.68c2.41-.51,1.32-.39-1.02-.03-2.34.37-5.92.98-8.48,1.44.59-.17,1.44-.37,2.41-.55-2.97.48-6.49,1.14-8.06,1.56-1.15.22-2.06.4-2.9.55.35-.09.73-.18,1.13-.26-1.31.25-2.73.52-3.99.8-.84.16-1.59.3-2.43.47-.84.18-1.77.38-2.95.66l-1.43.41c-1.26.26-2.17.45-3.12.66-.97.21-1.96.45-3.38.82,0,0-.71.22-1.41.45-.37.12-.74.24-1.01.33,1.56-.48,5.5-1.49,8.44-2.12l-.83.24c.38-.11.89-.24,1.49-.39,1.79-.39,3.05-.6,2.66-.45l.7-.31c1.43-.22,5-.97,8.17-1.6.15-.01.22,0,.09.05l.29-.12c3.35-.66,6.14-1.14,5.15-.82,1.76-.41,1.43-.4.14-.19,5.14-.93,11.9-2.08,10.34-1.61Z"/>
      <path class="cls-1" d="M169.83,6.08c-2.78-.03-5.35.07-8.62.25-3.28.18-7.27.44-12.93.79,6-.29,8.76-.33,13.63-.53-.66-.13,4.77-.32,7.92-.52Z"/>
      <path class="cls-1" d="M174.22,5.47c-2.79.14-6.24.35-4.58.34,1.65-.17,7.89-.35,8-.42.38-.01.77-.02,1.12-.03l-1.12.03s-.39-.03-1.16-.03c0,0,1.21-.04,2.41-.08,1.21-.04,2.42-.08,2.42-.08,0,0-1.63.02-3.26.04-1.63.02-3.26.05-3.26.05,4.35-.08,2.23.04-.56.19Z"/>
      <path class="cls-1" d="M133.07,9c.51-.06,1.52-.19,3.5-.36-2.22.09-4.73.46-7.37.73,3.53-.25,3.4-.23,3.37-.26-.02-.02,0-.04.51-.11Z"/>
      <path class="cls-1" d="M195.14,4.81c1.55,0,2.94,0,4.22-.01,0,0-1.05,0-2.11,0-1.05,0-2.11.01-2.11.01Z"/>
      <path class="cls-1" d="M200.81,5.44c-.1.04.1.06,1.15.07,1.05,0,2.96-.03,6.27-.07-.06-.1-3.58-.21-7.62-.21,1.81.02.4.14.19.21Z"/>
      <path class="cls-1" d="M326.25,27.5c.14-1.04,0-2.21-.38-3.21-.38-1-.91-1.84-1.26-2.26-.03-.04-.07-.07-.1-.1-.02.12-.15.16-.46.04-3.91-3.21-9.99-5.99-17.19-8.2-.74-.35-1.49-.66-2.12-.92-.64-.26-1.19-.46-1.55-.6-.06-.02-.12-.04-.19-.06.1.09.02.14-.34.12-12.12-3.09-27.21-5.23-42.73-6.49-15.52-1.28-31.5-1.71-45.75-1.56-2.46-.08-4.36.02-6.85-.1.52.08-5.06.17-9.1.32-4.05.14-6.57.27.07.26,1.44,0,2.8,0,4.12,0-.94.02-1.94.04-3.06.06,0,0,1.35,0,2.7,0,1.35,0,2.69.01,2.69.01-.33-.02-.43-.03-.43-.05,4.62.08,8.58.25,12.67.42,4.09.16,8.31.32,13.45.43,3.91.12,8.21.27,12.51.48,3.62.29,7.41.58,11.88.89,6.32.49,13.55,1.16,20.2,2.03,6.65.86,12.71,1.9,16.92,2.83l-.47-.05c2.78.53,5.26,1.1,7.53,1.69l.21.11c2.92.83,5.2,1.58,7.25,2.31,2.04.74,3.85,1.46,5.68,2.31.23.05.41.06.56.07,2.27,1.06,4.41,2.19,6.43,3.52l.32.72c1.6,1.46,2.56,2.74,3.21,3.96.64,1.23.98,2.41,1.04,3.71.34.36.71.37,1.08.13.07.46.02,1.44-.23,2.34-.18.7-.42,1.34-.52,1.64-.09.29.03.25.5-.45-1.32,2.04-2.98,4.53-6.6,7.49,1.21-.94,2-1.37,3.01-2.18,0,0,.13-.27.26-.54.1-.27.21-.54.21-.54.37-.4.65-.75.89-1.04.24-.29.44-.51.59-.69.31-.35.5-.47.57-.41s.03.31-.13.72c-.2.4-.48.96-1.01,1.62.17-.19.32-.37.47-.55.13-.17.24-.33.35-.49.22-.3.4-.57.52-.82.13-.24.25-.46.35-.67.08-.21.16-.4.24-.6.28-.78.63-1.55,1.12-3.17l-.49.07s.04-.11.07-.28c.03-.17.08-.39.13-.62.05-.22.06-.45.08-.61.02-.17.03-.28.03-.28-.07.22-.14.08-.22-.1.07-.06.13-.12.2-.19.48-.52.95-1.44,1.07-2.49Z"/>
      <path class="cls-1" d="M315.71,43.36c-.53.25-.93.44-2.79,1.55.01,0,.02,0,.03-.02.18-.11.41-.26.65-.4.23-.15.47-.29.64-.4.17-.11.28-.19.28-.19-.35.2-1.29.78-1.87,1.18,0,0-.25.14-.62.36-.36.22-.85.5-1.37.78-1,.57-2.08,1.11-2.08,1.11,0,0,.38-.17.94-.41.57-.25,1.29-.59,2.03-.93.72-.35,1.44-.7,1.97-.97.51-.27.86-.45.86-.45-1.73,1.16-3.32,2.04-4.8,2.8.3-.23.69-.51-.15-.14.73-.26-.74.56-2.5,1.43-1.62.73-3.17,1.4-4.97,2.14-1.78.75-3.83,1.58-6.45,2.63-.09.05-.15.08-.22.13-.68.26-1.4.52-2.14.79-.74.27-1.51.54-2.32.82.94-.3,1.66-.52,2.35-.71.69-.2,1.37-.38,2.17-.63l.26-.14c.46-.12,1.01-.28.94-.19-.03.05-.23.16-.67.37-.44.21-1.14.53-2.2.97-2.73,1-4.22,1.46-5.02,1.68,1.26-.5,2.34-.99,3.13-1.41-.62.22-1.11.4-1.56.56-1.01.19-1.54.32-2.56.61-1.02.28-2.56.73-5.65,1.5-1.83.64.62,0,3.12-.7-.57.18-1.33.41-1.89.6,0,0,.58-.18,1.17-.35.58-.18,1.16-.36,1.16-.36,1.74-.48,3.37-.96,3.57-.93-1.4.46-1.76.53-2.33.65-.58.12-1.32.33-3.56.99,0,0-1.25.39-2.53.75-1.27.37-2.56.73-2.56.73,0,0,.36-.08.71-.16.36-.08.71-.16.71-.16-.23.06-.45.13-.73.21,0,0,.77-.18,1.52-.36.76-.18,1.51-.36,1.51-.36-.86.26-1.63.48-2.3.69-.68.19-1.28.36-1.8.5-.17.04-.34.09-.52.13-.23.06-.49.13-.73.19-.44.11-.79.19-1.05.24-.93.19-.72.04.33-.34-5.3,1.52-7.13,1.87-8.58,2.18-1.48.3-2.6.55-6.8,1.64,3.05-.61,5.25-.96,8.16-1.67,0,0-.24.06-.6.15-.36.09-.84.21-1.32.33-.68.17-1.35.33-1.69.42-.03-.03-.04-.03-.08-.07-.82.24-1.68.44-2.54.63l-1.24.28s-.06,0-.11,0c-.29.01-.92.13-2.56.48-.31.06-.53.09-.54.07t-.07-.08c-.91.15-2.58.6-2.65.52t.07.08c-.87.19-1.69.36-2.48.5-.79.15-1.55.29-2.27.42-1.45.27-2.79.51-4.13.74-7.23,1.16-16.18,2.72-24.37,3.97-.92.12-1.79.34-.83.3-.92.12-1.84.25-2.75.37-1.84.25-.86.26-2.69.5-7.34,1.04-14.78,1.92-22.25,2.59-7.47.73-14.98,1.25-22.48,1.82,3.75-.22,6.59-.3,10.33-.64,0,.02,0,.04.06.06-1.78.16-3.57.32-5.35.47h-.02c-.21.02-.39.03-.59.05.2-.02.38-.03.58-.05-2.49.17-4.44.27-1.58-.01-4.13.36-2.42.25-4.82.53-.02,0-.03,0-.05,0-2.22.16-4.38.33-6.46.48-1.3.06-2.68.11-4.04.15-1.62.1-3.26.19-4.9.28-5.78.11-5.84-.22-11.96-.08-6.86.15-12.44.21-17.3.25-4.86.04-9.01.05-12.97.05-5.42-.12-9.87-.25-13.85-.38-3.98-.13-7.48-.26-10.98-.42-3.5-.15-6.99-.34-10.92-.62-3.92-.28-8.28-.65-13.44-1.25-1.45-.1-3.06-.34-4.95-.63-1.02-.15-2.12-.32-3.33-.48.14.02.22.04.32.05,7.05,1.17-6.01-.54,3.07.86-.86-.17-1.31-.26-.86-.24,3.08.5,7.57,1.1,8.93,1.33-4.82-.45-5.77-.82-7.85-1-2.86-.41-5.8-.9-7.11-1.16-.48.02-1.8-.12-3.32-.3-1.01-.23-3.32-.67-5.6-1.15-2.27-.48-4.52-.99-5.53-1.28-.04,0-.11,0-.16-.01-.48-.12-1.06-.26-1.83-.45,0,0,.13.07.25.14l.25.14c-.28-.04-.58-.1-.9-.15-.59-.15-1.23-.32-1.8-.47-.56-.15-1.04-.3-1.34-.4.24.12,1.15.4,2.06.66-2.18-.42-4.49-.95-4.74-.92-1.28-.42-1.67-.62-1.96-.77-.28-.16-.45-.27-1.15-.59.29.06.33.04-.17-.15-.04-.03-.1-.07-.21-.13.06.02.13.04.2.06.38.12.89.28,1.42.43.52.15,1.05.31,1.44.42.4.11.67.19.67.19-1.14-.32-2-.59-2.68-.79-.44-.14-.79-.24-1.07-.33-.05-.03-.11-.06-.18-.09-1.47-.55-4.01-1.51-5.96-2.45-.02,0-.03-.01-.05-.02.41.17,1,.42,1.9.76-1.36-.6-1.36-.7-4.84-2.32-.21-.14-.32-.23-.26-.25.04-.02.37.13.85.37.48.23,1.08.56,1.76.85.17-.07,1.4.29,2.77.71,1.43.4,2.92.9,3.68,1.15.41.11,1.28.38,2.38.73,1.15.32,2.52.73,3.94,1.1,2.83.75,5.8,1.4,6.66,1.57,2.55.56.32-.23-3.11-1.43-.84-.31-1.76-.65-2.71-.99-.92-.36-1.86-.73-2.79-1.09-.9-.38-1.78-.75-2.59-1.09-.81-.35-1.51-.69-2.16-.97-2.43-1.17.37-.16.62-.28-.69-.25-1.22-.5-1.71-.73-.49-.23-.95-.45-1.38-.67-.41-.23-.83-.46-1.29-.7-.23-.12-.48-.24-.73-.38-.24-.13-.5-.28-.78-.43.02,0-.07-.07-.24-.17-.17-.11-.43-.26-.74-.45-.33-.18-.64-.43-1.03-.69-.37-.27-.83-.54-1.22-.86-1.71-1.23-3.2-2.84-4-3.93,0,0-.14-.18-.5-.63-.2-.22-.34-.53-.55-.92-.11-.19-.22-.41-.35-.65-.08-.24-.17-.51-.26-.8-.27-.77-.31-.77-.43-.76q.1,0,.21-.02c-.08-.19-.14-.44-.2-.7-.02-.14-.05-.28-.07-.42,0-.15,0-.3,0-.45.01-.61.03-1.22.04-1.63q.11,0,.21,0c.01-.41.05-.81.1-1.22l.04-.31.09-.31.19-.61c.21-.82.66-1.63.97-2.44q.11,0,.21,0c.44-.81.97-1.61,1.06-1.6q.11,0,.21.02c.07-.1.15-.21.23-.33.1-.12.19-.25.3-.37.19-.26.4-.53.59-.78.18-.25.35-.47.49-.63.16-.16.28-.25.33-.24q-.1-.01-.2-.02c.75-.78,1.39-1.51,2.2-2.18.38-.34.76-.67,1.13-.99.42-.31.82-.62,1.22-.92.41-.3.78-.6,1.2-.88.43-.28.85-.56,1.27-.83.42-.27.84-.54,1.25-.81.45-.26.9-.52,1.35-.77,1.89-1.11,4.11-2.21,6.47-3.32,1.68-.56,1.08-.29.53-.06-.34.14-.65.28-.4.2.26-.07,1.05-.37,3.02-1.03.89-.42-.54-.03-2.98.8.29-.14.58-.27.88-.41.08-.03.17-.06.25-.09.47-.17.85-.31,1.16-.42.62-.22.94-.35,1.05-.4.03,0,.09-.02.1-.02,2.3-.78,3.34-1.12,3.65-1.24.31-.12-.1-.03-.62.1-.52.13-1.14.29-1.26.29-.13,0,.25-.16,1.75-.67-.48.16-1.12.37-1.8.59,2.09-.86,4.25-1.71,6.57-2.53,7.22-2.6,15.29-4.97,23.27-6.98.88-.23,1.76-.46,2.18-.59.42-.14.38-.17-.57,0,1.81-.42,3.62-.84,5.42-1.26,3.66-.8,1.72-.52,5.4-1.31,1.82-.42,3.69-.78,5.55-1.17l2.8-.57c.92-.19,1.88-.36,2.82-.54,1.89-.35,3.77-.71,5.66-1.06l5.72-.98c1.91-.34,3.83-.63,5.76-.94,1.93-.3,3.84-.62,5.79-.9,3.88-.56,7.75-1.14,11.67-1.64,15.62-2.09,31.44-3.79,47.3-5.31-3.97.35-7.45.66-10.93.96-3.47.34-6.93.69-10.88,1.12-.01-.04-.04-.13-2.01.09-2.96.33-6.05.66-9.1,1.02-3.04.37-6.05.74-8.88,1.09-2.81.37-5.44.72-7.75,1.01-.57.07-1.13.14-1.66.21-.53.07-1.03.14-1.51.2-.96.12-1.82.23-2.56.31-1.83.23-3.73.35-8.71,1.12,1.57-.25,3.14-.5,4.73-.73-.02-.04-.07-.13-.07-.13-7.8,1.13-17.48,2.68-25.1,4.09,0,0-.06-.08-.09-.12,0,0-.24.04-.6.11-.35.07-.83.16-1.29.26-.95.19-1.89.38-1.89.38-1.01.12-.46-.05,1.07-.4,1.52-.36,4.08-.85,7.06-1.42,2.96-.58,6.42-1.15,9.69-1.72,3.29-.56,6.46-1.04,8.88-1.43-.02-.04-.07-.13-.09-.17l-3.9.61-.05-.09c1.46-.23,2.89-.45,4.3-.68,1.41-.22,2.81-.41,4.19-.61,2.76-.4,5.45-.8,8.16-1.15,1.36-.18,2.71-.36,4.08-.54,1.36-.18,2.73-.37,4.12-.53,2.79-.34,5.63-.69,8.6-1.06-1.98.24-5.95.73-7.93.97-.02-.04-.04-.09-2.02.16,1.98-.24,4.09-.5,6.26-.77,1.08-.13,2.18-.27,3.28-.4,1.11-.13,2.23-.25,3.35-.38,2.24-.26,4.47-.51,6.64-.76,2.17-.24,4.29-.47,6.27-.7,1.98-.25-.05-.18-6.04.4-5.97.68-9.95,1.1-15.91,1.86l-.03-.09c1.98-.24,4.46-.55,6.96-.83,2.49-.28,4.97-.56,6.96-.81,1.98-.27-4.03.32-2.05.05,2-.22,3.99-.46,5.98-.71-1.5.15-3.11.34-4.8.53-1.68.19-3.43.4-5.17.6-.87.1-1.74.2-2.6.3-.86.11-1.72.21-2.55.31-1.68.2-3.3.4-4.79.57-2.01.19-4,.42-4.04.33-2.47.34-4.82.66-7.06.94-2.23.3-4.33.59-6.32.85-3.98.5-7.45.98-10.47,1.33-1.54.15-7.55,1.18-12.89,2.15-1.69.3-3.39.6-5.09.9-2.06.4-4.13.8-6.21,1.2-1.05.2-2.07.41-3.1.63l-3.09.65c-2.07.42-4.1.9-6.14,1.37-8.14,1.88-16.12,4.01-23.63,6.43-.94.31-1.89.6-2.81.92-.91.32-1.82.64-2.73.96-1.84.62-3.56,1.32-5.32,1.99-.89.33-1.72.69-2.56,1.04-.84.35-1.67.71-2.5,1.06-.81.36-1.59.74-2.39,1.11-.78.37-1.61.73-2.33,1.12-1.48.78-3.01,1.53-4.35,2.34-.68.4-1.4.79-2.04,1.2-.63.41-1.26.83-1.9,1.24-.31.21-.64.41-.93.62l-.86.64c-.56.43-1.15.84-1.69,1.27-.51.43-1.02.87-1.52,1.3-.25.22-.52.43-.74.65l-.66.66c-1,.86-2.64,2.65-3.33,3.56-.3.46-.6.92-.91,1.39-.3.47-.49.96-.74,1.44-.12.24-.23.49-.35.74-.04.12-.08.24-.12.36l-.02.03c-.09.25-.2.57-.18.59h0c-.1.31-.2.63-.29.95-.05.08-.29.46-.46.84-.11.22-.23.43-.29.59-.06.16-.11.27-.11.27l.45-.06s.01-.1.04-.26c.04-.16.09-.36.14-.57.06-.32.18-.64.23-.77-.03.09-.06.19-.08.28-.08.51-.17,1.01-.26,1.53-.06.26-.06.51-.06.77,0,.26,0,.51,0,.77v.77c.02.26.06.52.1.79l.02.1c-.06-.2-.11-.33-.15-.4-.08-.13-.14-.07-.19.09l-.1-.51s-.03.39-.06.78c-.02.2,0,.39,0,.54,0,.15,0,.24,0,.24-.01.08-.2-.23-.26-1.56-.23-1.01-.24-.59-.22.04.04.31.09.68.11.94.04.26.05.42-.06.34.18.25.33.58.54,1.01.17.43.39.97.64,1.63-.2-.2-.04.1.21.52,0,.03.02.05.03.07,0,0,0-.01,0-.02.39.65,1.09,1.5.78,1.34.76.55,1.72,1.53,3.37,3.19-.02-.27-.59-.82-1.15-1.43-.59-.61-1.18-1.27-1.48-1.72.53.72,1.35,1.52,2.28,2.34.21.18.42.35.64.53.25.22.5.44.77.66.55.41,1.09.82,1.63,1.23.59.38,1.18.77,1.76,1.14.58.38,1.24.71,1.85,1.06.31.17.61.34.93.5.33.15.65.3.97.45.64.29,1.24.58,1.87.82.63.24,1.23.47,1.79.67.29.1.56.2.82.29.08.02.15.05.23.07.01,0,.02,0,.03.01,0,0-.02,0-.02,0,.19.06.39.12.56.18.43.13.83.25,1.19.36,1.06.4,2.03.75,2.8,1.05l-1.26-.55s.56.18,1.13.36c.56.18,1.15.35,1.15.35.78.28,1.28.45,1.84.65.56.19,1.19.42,2.31.75.12.08.69.31,2.08.72,1.36.3,2.28.46,2.92.57.64.11,1.02.16,1.35.19,0,0,1.11.24,2.22.49,1.12.23,2.24.46,2.24.46-1-.22-1.78-.4-2.39-.53-.59-.14-1.01-.25-1.29-.33.83.1,2.19.37,6.75,1.17,1.03.27,1.52.44,1.23.45-.3.01-1.41-.12-3.54-.48.67.14,1.19.25,1.65.35-.23,0,.15.14,1.49.45-.6-.03-1.57-.11.03.28,0,0,.4.01.79.02.4,0,.79.02.79.02,2.02.28,3.07.39,3.74.44,0,0,.27.05.68.13.4.08.95.18,1.51.28.55.1,1.1.2,1.52.27.42.07.69.12.69.12l-3-.67c2.15.36,4.15.7,6.05,1.02-.27-.03-.48-.05-.77-.08,4.36.63,4.37.68,3.72.69-.64.01-1.89-.05.06.29l2.7-.06c.37.04.73.09,1.09.13.57.02.38-.05-.23-.16,0,0,.84.12,1.68.23.83.12,1.68.22,1.68.22.48.13.82.25,1.39.42,2.76.25,4.61.41,4.63.34,2.08.22,3.36.35,3.94.44.58.08.46.12-.25.11.14.04-.22.02-.78-.03,2.67.24,6.06.5,8.65.7,2.6.2,4.41.36,3.91.47,6.41.34,11.7.59,16.84.79,5.15.2,10.15.35,16.02.42l1.88-.15c3.45.02,6.76.02,10.09,0,1.03.06,1.05.16,1.84.24.76.07,2.22.12,5.92.06-1.19.03-2.16.06-3.85.12,0,0,.88.03,1.77.05.89.02,1.78.04,1.78.04,0,0,1.07-.1,2.13-.2,1.07-.1,2.14-.21,2.14-.21,8.86-.31,2.1.16,6.61.08l-1.3.05c4.7-.18,4.59-.04,7.4-.1.8-.3,5.41-.33,5.27-.51l4.05-.11-.98.07c2.68.08,7.01-.35,12-.68,1.97-.16,3.88-.35,5.78-.52.64-.02,1.28-.04,2.28-.1.21-.09.7-.18,1.3-.25.72-.07,1.42-.15,2.14-.22.76-.07,1.46-.14,1.87-.2.64-.07,1.3-.14,1.93-.21l2.86-.19-1.05.12c2.95-.03,7.62-.69,13.01-1.29,1.73-.22,3.42-.45,5.1-.69,1.11-.12,2.23-.24,3.34-.37,2.05-.24,4.08-.51,6.13-.77l3.07-.4,3.06-.44c2.03-.3,4.08-.58,6.1-.89,8.08-1.24,15.95-2.63,23.38-3.96.95-.15,2.83-.46,3.78-.61,7.38-1.42,16.27-3.61,23.03-5.64,1.7-.5,3.01-1.07,3.92-1.48.9-.42,1.39-.7,1.39-.7.75-.32,1.33-.73.41-.54-1.73.46-5.92,1.7-6.12,1.55-.05-.04.78-.28,1.62-.53-.2-.15,1.86-1.18,2.69-1.42.39-.16,1.67-.68,2.96-1.2,1.29-.52,2.58-1.05,2.92-1.21,1.1-.45-.35-.2-2.5.24-.4.08-.83.18-1.26.27,1.47-.6,2.16-.95,1.64-.88,5.09-1.76,7.68-2.82,9.97-3.78,2.26-.97,4.26-1.84,7.57-3.52,1.87-1.17,4.07-2.55,5.87-3.91,1.81-1.35,3.2-2.68,3.76-3.65-.95.84-1.63,1.34-2.11,1.67-.48.33-.75.48-1.03.62ZM17.61,64.6s.08.05.14.08c-.16-.08-.33-.16-.49-.23-.41-.21-.75-.41-1.05-.58-.21-.12-.39-.23-.52-.32,1.58.79,1.72.91,1.92,1.05ZM1.79,55c-.1-.11-.16-.2-.23-.27-.15-.59-.56-1.65-.74-2.41l.22-.05-.25-.81c.06,0,.16.11.32.34l.04.23c.05.26.15.52.23.78.14.47.34.93.55,1.39-.03.05-.03.14.01.27.08.28.26.73.63,1.27.11.36.4.82.38.88,0,.05-.4-.29-1.17-1.6ZM148.86,77.48h-.01c-.18,0-.36.02-.53.02.17,0,.35-.01.52-.02h.02Z"/>
      <path class="cls-1" d="M290.82,55.16c-.63.21-1.37.46-2.28.78.79-.26,1.55-.52,2.28-.78Z"/>
      <path class="cls-1" d="M34.79,26.87c-.64.26-1.22.46,2.45-.72,1.04-.46-1.16.13-4.39,1.22,3.3-1.06,2.59-.75,1.94-.5Z"/>
      <path class="cls-1" d="M42.91,23.62c1.61-.39,1.72-.34,2.23-.43.51-.09,1.42-.31,4.7-1.16l-.97.19c-2.23.56-1.84.35-1.84.28,0-.07-.41-.02-4.13,1.12Z"/>
      <path class="cls-1" d="M101.66,11.9c1.1-.14,2.38-.33,3.97-.57-1.02.13-2.7.37-3.97.57Z"/>
      <path class="cls-1" d="M129.04,8.83l-2.22.29c-.97.09-1.94.18-2.87.27-.35-.05,1.05-.25,2.94-.48,1.9-.21,4.3-.43,5.97-.51,3.39-.38,1.11-.2-1.04-.02-2.14.18-4.15.37-.21-.06-3.75.33-5.5.51-6.32.61-.83.1-.71.12-.7.16,0,.08-.45.18-9.67,1.25-2.62.26-1.77.11-.07-.12,1.07-.12,2.12-.21,2.97-.27,2.39-.32,1.67-.26.32-.13.43-.06.88-.11,1.36-.18-.59.07-1.38.16-2.22.26-2.08.21-4.46.48-.62,0-7.69.84-6.19.75-6.43.85-.52.08-1.01.17-1.52.28-.36.05-.83.12-1.38.2-2.06.19-5.83.76-7.14.9.28-.06.78-.14,1.46-.24-.7.09-1.33.17-1.89.25.03-.02.1-.04.25-.09-4.17.6-6.19.96-8.03,1.3-1.33.21-2.7.42-3.52.55l1.32-.29c.66-.14,1.32-.28,1.32-.28-1.64.25-2.6.41-3.14.51-.54.1-.68.13-.65.15-2.31.38-3.89.67-5.14.92-1.23.2-2.72.45-4.07.72l1.72-.41c-5.27.93-2.84.58-3.14.69-.28.06-.58.12-.81.17.25-.05.43-.08.64-.12-.29.07-.99.22-2.53.52.82-.24-5.32.86-7.92,1.52,3.05-.67,4.74-.99,5.58-1.13.84-.14.84-.08.54.03-.61.23-2.38.72-.98.46-.6.13-1.65.32-2.79.55-1.54.25-.05-.19-2.97.35-3.23.71-1.48.49,1.24,0-.03,0-.05.01-.07.02,3.77-.66,5.56-1.05,7.4-1.46,1.84-.41,3.7-.85,7.66-1.51-.55.16-.98.29-.57.24,0,0,.04,0,.07,0-1.07.19-2.93.49-4.74.85,3-.46,4.87-.78,6.44-1.09,1.8-.27,4.17-.62,3.13-.35,6.93-1.22,1.51-.41-.94-.08,1.88-.38,3.93-.79,7.88-1.37.79-.11,1.57-.22,2.29-.32-1.1.2-1.8.32-2.23.41-.85.12-1.76.25-2.59.38.25.18,3.35-.3,6.87-.82.76-.08,1.13-.1.54.04,3.49-.55,4.13-.67,3.55-.63,1-.14,1.94-.26,2.8-.36.41-.04.91-.09,1.45-.15.54-.05,1.02-.09,1.37-.1l-.95.14s.99-.1,1.99-.19c1-.09,1.99-.18,1.99-.18,1.36-.27.09-.18-2.13.05,1.18-.15,2.48-.32,3.79-.49,1.31-.16,2.63-.33,3.87-.47,2.5-.21,2.02-.18,2.07-.22,1.39-.14,2.56-.23,3.27-.23l-1.04.13s1.09-.08,2.18-.16c1.08-.08,2.17-.16,2.17-.16,2.28-.4-1.98-.05-6.57.42.14-.04.77-.16,3.62-.48-1.97.12-4.15.48-6.45.77-2.12.22-3.97.42-4.98.51,2.22-.32,5.34-.72,7.13-.96,0,0,1.33-.11,2.66-.21,1.33-.1,2.66-.2,2.66-.2,1.57-.21,4.63-.56,7.16-.84,2.53-.29,4.51-.5,3.89-.52.73-.1-.08-.05-1.29.05h-.03c1.24-.12,2.12-.2,2.97-.28-2.24.17-4.56.37-6.89.58-.08-.01.15-.06.95-.17ZM93.2,13.37s-.06.01-.11.02h.05s.05-.02.06-.02Z"/>
      <path class="cls-1" d="M47.15,22.99c-.15.05-.29.09-.4.13,0,0,.16-.05.4-.13Z"/>
      <path class="cls-1" d="M66.87,18.39c.47-.08.97-.17,1.41-.25-.51.08-.97.16-1.41.25Z"/>
      <path class="cls-1" d="M151.46,6.91c1.87-.23,10.32-.61,6.25-.55,0,0,1.11-.06,2.21-.13,1.11-.06,2.22-.12,2.22-.12,0,0-1.5.05-3,.1-.68.02-1.34.05-1.88.07,2.43-.08.66.06-1.6.22-2.55.2-5.71.43-4.19.4Z"/>
      <path class="cls-1" d="M157.25,6.29c-.3.01-.67.02-1.12.04,0,0,.46-.02,1.12-.04Z"/>
      <path class="cls-1" d="M183.74,5.24c-1.51-.02,1.36-.23,1.82-.28-1.69.15-3.88.28-6.81.39,0,0,1.25-.03,2.5-.06,1.25-.03,2.49-.05,2.49-.05Z"/>
      <path class="cls-1" d="M74.01,77.27c-1.41-.14-3.35-.36-3.62-.41.46.09,1.85.24,3.62.41Z"/>
      <path class="cls-1" d="M149.15,79.8c-.36.01-.75.03-1.17.05l1.17-.05Z"/>
    </g>
  </g>
</svg>